<?xml version="1.0" encoding="UTF-8"?>
<svg width="817px" height="160px" viewBox="0 0 817 160" version="1.1" xmlns="http://www.w3.org/2000/svg" xmlns:xlink="http://www.w3.org/1999/xlink">
    <title>zm_signature</title>
    <g id="zm_signature" stroke="none" stroke-width="1" fill="none" fill-rule="evenodd">
        <path d="M117.210526,18 C118.631579,18 120.052632,16.9230769 121.631579,15.0769231 C130.473684,5.23076923 133,2.76923077 133,1.07692308 C133,0.461538462 132.684211,0 132.210526,0 C131.736842,0 130.947368,0.307692308 130,1.07692308 C129.449393,1.61341223 128.508772,2.64684165 127.191215,4.11350106 L126.710565,4.6490306 C125.056369,6.49340009 122.882591,8.9270217 120.210526,11.8461538 C119.578947,12.4615385 118.947368,12.9230769 118.157895,12.9230769 L117.842105,12.9230769 C115.947368,12.9230769 113.421053,10.6153846 111.052632,8.76923077 C108.526316,6.76923077 106.315789,4.61538462 103.947368,2.61538462 C103.473684,2.15384615 102.842105,1.69230769 101.894737,1.69230769 C100.789474,1.69230769 100,2 100,3.07692308 L100,3.84615385 C100.947368,5.07692308 101.894737,6.30769231 103.157895,7.38461538 C106.473684,10.4615385 109.947368,13.5384615 113.578947,16.4615385 C114.842105,17.3846154 116.105263,18 117.210526,18 Z M14.911155,160 C37.3563672,160 66.7077986,135.8 79.8923988,122.442857 C80.9911155,121.185714 82.0898322,120.557143 83.5024679,120.557143 L83.9733465,120.557143 C84.6011846,120.557143 85.0720632,120.557143 85.8568608,120.714286 C90.855418,122.237363 101.504518,125.467625 112.34137,128.628363 L113.890179,129.079233 C114.406481,129.229237 114.922619,129.378892 115.438003,129.528005 L116.981303,129.973529 C128.016955,133.152064 138.431403,135.99168 142.36229,136.585714 C144.559724,137.057143 146.443238,137.214286 148.797631,137.214286 C156.331688,137.214286 159,134.385714 159,132.342857 C159,130.457143 156.802567,129.985714 154.919052,130.928571 C153.349457,131.714286 150.995064,132.185714 147.228036,132.185714 C131.061204,132.185714 100.454097,120.085714 88.5251728,117.1 C86.798618,116.785714 86.1707799,115.842857 87.4264561,114.585714 C90.5656466,110.657143 93.8617966,106.885714 97.1579467,102.957143 C101.081935,98.2428571 104.535044,93.3714286 108.145114,88.1857143 C109.40079,86.3 110.813425,85.6714286 113.324778,85.6714286 C120.387957,85.9857143 127.451135,86.1428571 134.671273,86.3 L155.860809,86.9285714 C158.058243,86.9285714 158.372162,82.8428571 156.645607,82.8428571 C150.210267,82.3714286 143.147088,82.2142857 136.240869,81.9 C129.17769,81.7428571 122.114511,81.7428571 115.679171,81.4285714 C115.051333,81.4285714 113.795656,81.4285714 113.638697,80.6428571 C113.71427,79.810582 117.283,73.9510288 121.156303,67.8000392 L121.754169,66.8520725 C121.953972,66.535743 122.154145,66.2192857 122.35426,65.9033394 L122.953997,64.957672 C126.546196,59.3005291 129.979928,54.015873 130.747285,52.8285714 C133.258638,48.9 136.711747,42.6142857 140.321816,39.4714286 C142.676209,37.5857143 145.344521,37.1142857 148.169793,36.1714286 C153.663376,34.6 153.506417,28 148.640671,28 C147.228036,28 145.501481,28.4714286 143.304047,29.7285714 C140.164857,31.6142857 137.810464,33.8142857 135.299112,34.7571429 C129.805528,37.1142857 116.150049,37.9 103.122409,37.9 L97.1579467,37.9 C90.094768,37.9 83.5024679,36.4857143 78.9506417,36.4857143 C76.4392892,36.4857143 75.8114511,41.0428571 78.6367226,41.0428571 C82.8746298,41.3571429 86.9555775,41.6714286 91.0365252,41.6714286 C93.7048371,41.8285714 96.3731491,41.8285714 99.041461,41.8285714 C109.557749,41.8285714 121.643633,41.3571429 130.904245,40.1 C133.572557,39.7857143 133.258638,40.4142857 131.846002,42.7714286 C124.468904,54.5571429 116.934847,66.3428571 109.40079,78.2857143 C107.578034,81.0230415 107.225243,81.4056786 104.359286,81.4275165 L100.924975,81.4285714 L62.94077,81.9 C59.958539,81.9 59.3307009,86.1428571 62.7838105,86.1428571 L101.081935,85.9857143 C103.122409,85.9857143 103.593287,86.6142857 102.65153,88.0285714 C99.1984205,93.2142857 88.3682132,106.257143 84.130306,111.442857 C80.3632774,115.842857 80.2063179,115.371429 74.7127345,114.9 C70.9457058,114.428571 67.1786772,113.957143 60.9002962,113.957143 C21.8173741,113.957143 0,134.7 0,148.842857 C0,154.814286 4.23790721,160 14.911155,160 Z M14.9179601,155 C8.3059867,154.843882 5,151.721519 5,147.194093 C5,135.953586 24.8359202,118 63.5631929,118 L67.0266075,118 C69.3880266,118 75.5277162,118.468354 76,119.405063 C75.8425721,122.995781 43.4124169,149.067511 23.1042129,153.907173 C19.9556541,154.687764 17.2793792,155 14.9179601,155 Z M162.4625,71 C166.85,71 172.375,64.5205479 173.8375,62.4109589 C174,62.260274 174,62.109589 174,61.9589041 C173.5125,60.7534247 171.2375,60 169.6125,60 C168.9625,60 168.15,60.1506849 167.825,60.6027397 C162.7875,64.6712329 161,67.8356164 161,69.6438356 L161,70.2465753 C161,70.6986301 161.4875,71 161.975,71 L162.4625,71 Z M149.771261,117 C150.859238,117 152.102639,116.688889 153.501466,116.377778 C163.44868,113.422222 187.228739,98.1777778 194.844575,89.6222222 C195,89.4666667 195,89.1555556 195,88.8444444 C195,88.0666667 194.222874,87.2888889 193.290323,87.2888889 C192.979472,87.2888889 192.668622,87.2888889 192.357771,87.6 C182.410557,96.3111111 164.536657,108.133333 153.190616,111.4 C152.258065,111.711111 151.480938,111.866667 150.859238,111.866667 C148.527859,111.866667 147.595308,110.311111 147.595308,108.133333 C147.595308,102.066667 152.102639,92.4222222 157.387097,86.8222222 C158.319648,85.8888889 158.785924,85.4222222 158.785924,84.6444444 C158.785924,83.4 157.387097,82 155.98827,82 C155.366569,82 154.900293,82.3111111 154.434018,82.6222222 C149.460411,88.0666667 142,100.977778 142,108.755556 C142,113.733333 144.953079,117 149.771261,117 Z M187.315789,120 C190.157895,120 193.473684,118.284123 195.684211,116.412256 C204.368421,108.924791 205.631579,106.896936 212.578947,97.8495822 C213.052632,97.0696379 213.368421,96.6016713 213.842105,96.6016713 C214.157895,96.6016713 214.473684,96.913649 215.105263,97.3816156 C219.052632,101.593315 223.789474,103.62117 229.315789,103.62117 L230.421053,103.62117 C233.421053,103.465181 237.684211,102.373259 240.052632,100.657382 C240.684211,100.033426 241,99.5654596 241,98.9415042 C241,98.005571 240.052632,97.0696379 238.947368,97.0696379 C238.631579,97.0696379 238.157895,97.0696379 237.842105,97.3816156 C235.947368,98.6295265 231.684211,99.4094708 229.473684,99.4094708 C224.736842,99.4094708 220.473684,97.5376045 217.789474,93.3259053 C217.315789,92.545961 217,91.9220056 217,91.2980501 C217,90.8300836 217.315789,90.2061281 217.631579,89.4261838 C220.157895,84.5905292 222.684211,78.9749304 224.105263,73.6713092 C224.421053,72.1114206 224.578947,70.8635097 224.578947,69.7715877 C224.578947,66.0278552 222.842105,64 220.631579,64 C218.894737,64 217,65.091922 215.578947,67.5877437 C212.263158,72.735376 210.368421,79.1309192 210.210526,85.2144847 L210.210526,86.1504178 C210.210526,88.178273 210.368421,89.270195 210.368421,90.2061281 C210.368421,92.0779944 209.736842,93.0139276 205.473684,98.4735376 C203.105263,101.905292 192.842105,114.696379 188.263158,114.696379 C187.947368,114.696379 187.789474,114.696379 187.473684,114.54039 C186.526316,114.228412 186.052632,112.668524 186.052632,110.640669 C186.052632,106.740947 187.631579,100.657382 189.526316,94.729805 C192.052632,86.7743733 196,79.4428969 196.315789,78.6629526 C196.473684,78.5069638 196.473684,78.3509749 196.473684,78.1949861 C196.473684,76.7910864 194.421053,75.3871866 192.842105,75.3871866 C191.894737,75.3871866 191.105263,75.6991643 190.631579,76.6350975 C187.315789,84.7465181 181,100.033426 181,110.640669 C181,112.200557 181.157895,113.604457 181.315789,114.852368 C182.263158,118.5961 184.631579,120 187.315789,120 Z M215,83 L215,82.8493151 C215,82.1845286 215.373702,80.5812201 215.79137,78.9710107 L215.96,78.3287671 C216.44,76.5205479 216.92,74.8630137 216.92,74.7123288 C217.56,73.0547945 218.36,72 218.84,72 C219,72 219,72.1506849 219,72.4520548 C219,72.9041096 218.84,73.6575342 218.36,75.0136986 L215.32,82.8493151 C215.16,83 215.16,83 215,83 Z M236.976923,115 C245.423077,114.368421 253.55641,100.315789 256.528205,93.0526316 C258.561538,88.4736842 257.310256,87.0526316 261.064103,90.3684211 C264.661538,93.3684211 269.197436,94.4736842 273.889744,94.4736842 L275.766667,94.4736842 C280.302564,94.4736842 285.151282,92.8947368 289.217949,90.6842105 C289.687179,90.5263158 290,89.8947368 290,89.2631579 C290,88.1578947 289.217949,86.7368421 288.123077,86.7368421 C284.212821,89.2631579 280.302564,90.6842105 276.705128,90.6842105 L275.453846,90.6842105 C267.633333,90.6842105 260.907692,86.2631579 260.907692,79 C260.907692,76.4736842 261.376923,75.5263158 261.376923,73 C261.376923,70.3157895 261.064103,67 257.623077,67 C254.807692,67.6315789 253.869231,70.4736842 253.869231,73.6315789 C253.869231,76.6315789 254.651282,79.9473684 255.120513,82.3157895 C253.869231,91.3157895 244.328205,110.578947 236.820513,110.578947 C234.94359,110.578947 233.692308,108.526316 233.692308,105.684211 C233.692308,99.2105263 238.697436,87.8421053 250.897436,81.2105263 C253.24359,80.2631579 251.366667,75.5263158 248.707692,76.9473684 C239.166667,81.5263158 229,95.2631579 229,106.157895 C229,110.421053 230.720513,113.578947 234.630769,114.684211 C235.412821,114.842105 236.194872,115 236.976923,115 Z M273.03866,118 C273.664377,118 274.290093,117.688654 274.915809,117.221636 C275.408561,116.82934 281.054508,107.354423 287.472815,97.8276048 L288.086277,96.9204208 C288.188863,96.7692937 288.291609,96.6182256 288.394497,96.4672529 L289.013388,95.5628486 C292.321735,90.7485383 295.739648,86.105752 298.693029,82.817942 C300.257319,80.6385224 303.229472,77.6807388 305.106621,79.5488127 C309.330206,83.4406332 313.71022,85.3087071 318.090234,85.3087071 C322.000961,85.3087071 325.911688,83.9076517 329.353127,81.2612137 C331.386705,79.237467 328.101695,76.4353562 326.693833,77.8364116 C325.285971,79.237467 322.470248,81.4168865 318.71595,81.4168865 C315.587369,81.4168865 311.833071,79.8601583 307.609486,75.1899736 C305.26305,72.8548813 302.603756,73.0105541 300.10089,75.0343008 C296.190163,77.8364116 291.184433,84.8416887 288.36871,89.0448549 L282.424405,98.0738786 C282.111547,98.6965699 281.172972,99.474934 281.642259,98.2295515 C285.083699,88.7335092 289.620142,77.9920844 294.000156,69.1187335 C294.782302,67.5620053 298.067312,63.2031662 298.067312,61.4907652 C298.067312,60.5567282 297.285167,59 296.033734,59 C294.938731,59 293.218011,60.2453826 291.340862,64.4485488 C280.703685,87.7994723 279.76511,88.5778364 271.630799,112.395778 C270.692224,114.730871 270.535795,118 273.03866,118 Z M303.461207,115 C305.821121,115 309.125,113.432056 313.215517,109.982578 L332.409483,93.3623693 C333.196121,92.5783972 333.825431,92.2648084 334.140086,92.2648084 C334.297414,92.2648084 334.454741,92.4216028 334.454741,92.7351916 C334.454741,94.6167247 332.094828,100.261324 332.094828,105.905923 C332.094828,106.533101 332.252155,107.317073 332.252155,108.101045 C332.881466,112.648084 335.87069,114.372822 339.489224,114.372822 C340.118534,114.372822 340.747845,114.372822 341.377155,114.216028 C350.81681,112.961672 367.650862,97.28223 372.685345,89.2857143 C373,88.9721254 373,88.6585366 373,88.1881533 C373,87.2473868 372.213362,86.6202091 371.426724,86.6202091 C370.954741,86.6202091 370.482759,86.7770035 370.168103,87.2473868 C364.661638,94.4599303 346.883621,109.512195 339.961207,109.512195 C338.230603,109.512195 337.12931,108.414634 337.12931,106.219512 L337.12931,105.592334 C337.12931,96.9686411 339.961207,93.5191638 341.849138,86.7770035 C342.163793,85.5226481 342.321121,84.738676 342.321121,84.1114983 C342.321121,82.3867596 341.219828,82.7003484 341.219828,80.1916376 C341.219828,79.7212544 341.219828,79.2508711 341.377155,78.466899 C341.377155,74.3902439 340.590517,70 335.398707,70 C334.140086,70 332.56681,70.3135889 330.993534,71.097561 C319.665948,76.1149826 308.181034,91.3240418 302.831897,101.986063 C300.786638,105.749129 300,108.885017 300,111.080139 C300,113.58885 301.258621,115 303.461207,115 Z M306.467337,109 C306.155779,109 306,108.842593 306,108.527778 C306,107.583333 307.40201,104.75 309.894472,100.342593 C315.346734,90.5833333 323.135678,80.8240741 332.638191,75.787037 C333.417085,75.3148148 334.19598,75 334.819095,75 C336.844221,75 337,78.7777778 337,80.3518519 C337,81.6111111 336.688442,82.8703704 335.909548,83.8148148 C328.58794,90.7407407 321.422111,97.8240741 313.633166,104.12037 C309.582915,107.425926 307.246231,109 306.467337,109 Z M373.708834,147 C375.911179,147 378.428145,145.126148 378.428145,143.720759 C378.428145,143.252296 378.113524,142.783833 377.169662,142.471524 C376.38311,142.159216 375.911179,141.066135 375.911179,139.504592 C375.911179,122.171461 420.115398,37.535811 429.396711,23.7942295 C431.127125,21.4519145 428.92478,18.0165191 425.463951,21.4519145 C422.317743,25.0434642 414.294914,36.9111936 409.890223,43.7819844 C408.946361,45.4996821 410.204844,46.7489168 410.047533,47.0612254 C407.845188,53.3073988 396.51884,72.3582277 396.046909,72.3582277 C394.788426,72.3582277 393.372632,70.0159127 389.597183,70.0159127 C388.024079,70.0159127 385.821733,70.4843757 382.990146,71.8897647 C365.371383,80.1659445 352,103.901403 352,112.646046 C352,114.676053 352.786552,115.925287 354.359656,115.925287 C355.303518,115.925287 356.562001,115.456824 358.292416,114.363744 C360.313417,113.079808 366.1979,107.713359 372.252593,102.121248 L374.217578,100.304551 C379.285098,95.6161569 384.191823,91.062047 386.765596,88.9105873 C388.3387,87.3490439 391.956839,84.3821116 390.541045,87.5051983 C384.091319,102.652169 370.719936,127.793017 370.719936,142.471524 C370.719936,145.90692 372.13573,147 373.708834,147 Z M358.218723,110 C357.279618,110 359.470863,105.71028 362.757731,99.8317757 C372.461816,82.3551402 384.983216,76 389.835258,76 C392.183021,76 392.809091,76.953271 390.774363,79.8130841 C390.561499,80.0545794 390.185357,80.4506318 389.67254,80.9749664 L389.262717,81.3918598 C386.872319,83.8125486 382.269512,88.3042711 377.321719,93.0228211 L376.418735,93.8828283 C376.11675,94.1700568 375.813914,94.4577079 375.510641,94.7453711 L374.144379,96.0385514 C366.55328,103.207944 359.07957,110 358.218723,110 Z M537.393728,160 C538.804878,160 540.059233,159.375148 540.529617,158.125444 C540.686411,157.969231 540.686411,157.813018 540.686411,157.500592 L540.686411,157.344379 C540.686411,155.938462 538.020906,155.469822 536.766551,155.157396 L536.766551,150.939645 C542.41115,123.446154 567.498258,74.7076923 580.041812,47.6828402 C582.080139,43.4650888 583.804878,39.0911243 585.529617,34.7171598 C585.843206,33.7798817 586,32.9988166 586,32.2177515 L586,31.9053254 C586,29.5621302 584.432056,28.156213 582.393728,28 C581.139373,28 579.728223,28.312426 578.160279,29.4059172 L573.456446,32.6863905 C557.149826,45.495858 542.724739,60.9609467 528.770035,76.1136095 C521.714286,83.7680473 514.815331,91.4224852 507.916376,99.0769231 C507.289199,99.7017751 506.505226,100.639053 505.878049,101.107692 C505.56446,101.420118 505.407666,101.576331 505.250871,101.576331 L504.937282,101.576331 C504.780488,101.420118 504.780488,101.263905 504.780488,101.107692 C504.780488,100.48284 505.407666,99.3893491 505.56446,98.9207101 C514.972125,79.3940828 523.439024,62.3668639 531.592334,42.0591716 C532.219512,40.6532544 532.689895,38.4662722 532.84669,36.2792899 C532.84669,33.3112426 532.062718,30.3431953 529.083624,30.3431953 C528.61324,30.3431953 527.829268,30.3431953 527.045296,30.6556213 C519.519164,32.6863905 509.170732,42.8402367 503.682927,47.9952663 C503.369338,48.6201183 502.74216,49.0887574 502.114983,49.0887574 C501.644599,49.0887574 501.33101,48.4639053 500.860627,47.5266272 C497.567944,38.7786982 489.25784,36.435503 480.790941,36.435503 L477.968641,36.435503 C471.54007,36.435503 464.954704,37.216568 458.839721,38.4662722 C456.33101,38.9349112 455.390244,40.1846154 455.390244,41.2781065 L455.390244,41.5905325 C455.390244,42.6840237 456.174216,43.6213018 457.114983,43.7775148 C457.271777,43.9337278 457.585366,43.9337278 457.898955,43.9337278 C459.466899,43.9337278 461.191638,43.4650888 462.289199,42.9964497 C466.052265,41.5905325 472.95122,40.8094675 479.379791,40.8094675 L482.202091,40.8094675 C485.494774,40.8094675 488.473868,41.2781065 490.355401,42.0591716 C494.58885,43.7775148 496.940767,47.3704142 496.940767,51.1195266 L496.940767,51.4319527 C496.940767,53.6189349 496,55.8059172 494.275261,57.6804734 C480.947735,73.1455621 468.247387,88.2982249 459.15331,104.856805 C453.038328,116.260355 451.156794,122.040237 451,125.008284 C451,126.88284 451.627178,127.663905 452.41115,128.132544 C452.672474,128.262722 452.824913,128.284418 453.049942,128.288034 L453.351916,128.288757 C456.174216,128.288757 461.505226,123.289941 470.12892,110.792899 C481.418118,94.5467456 495.529617,72.8331361 500.076655,59.3988166 C501.017422,56.5869822 522.655052,35.3420118 526.888502,35.3420118 C527.672474,35.3420118 528.142857,35.9668639 528.142857,36.904142 L528.142857,37.3727811 C528.142857,39.2473373 527.045296,42.6840237 525.006969,47.0579882 L497.881533,105.63787 C497.567944,106.262722 497.41115,107.043787 497.41115,107.668639 C497.41115,108.449704 497.567944,109.074556 498.038328,109.699408 C498.508711,110.480473 500.076655,111.105325 501.017422,111.105325 C502.585366,111.105325 504.466899,109.386982 505.407666,108.293491 C509.327526,104.231953 513.090592,100.014201 516.853659,95.7964497 C527.829268,83.4556213 551.191638,57.6804734 569.222997,42.0591716 C570.23613,41.1619481 571.633157,39.8419943 573.102196,38.5184275 L573.735284,37.9521852 C576.172051,35.7901101 578.682927,33.7798817 579.885017,33.7798817 C580.355401,33.7798817 580.512195,33.9360947 580.512195,34.5609467 C580.512195,35.4982249 580.041812,37.216568 578.787456,39.8721893 C563.735192,71.2710059 539.902439,116.572781 532.376307,150.471006 C532.219512,151.252071 532.062718,152.033136 532.062718,152.814201 L532.062718,153.126627 C532.062718,157.813018 534.885017,159.843787 537.393728,160 Z M459,119 L459,118.214047 C465.958763,101.866221 475.546392,87.5618729 486.835052,74.0434783 C486.989691,73.729097 488.381443,72 488.845361,72 C489,72 489,72.1571906 489,72.3143813 C489,72.6287625 488.690722,73.1003344 488.536082,73.2575251 C480.649485,88.1906355 471.061856,102.180602 461.164948,116.170569 C461.010309,116.48495 459.309278,119 459,119 Z M610.325175,137 C610.954545,137 611.583916,136.686122 612.055944,136.215305 C612.370629,135.744488 612.527972,135.273671 612.527972,134.959792 C612.527972,133.233463 609.381119,132.762646 609.381119,129.466926 L609.381119,128.525292 C610.167832,124.130999 610.63986,119.579767 611.741259,115.185473 C614.730769,103.728923 625.115385,73.9105058 631.566434,63.7094682 C641.479021,48.1725032 648.716783,38.2853437 657.055944,22.1206226 C657.685315,20.7081712 658,19.6095979 658,18.6679637 C658,16.9416342 657.055944,16 655.63986,16 C654.538462,16 652.965035,16.7846952 651.706294,18.3540856 C641.479021,31.0661479 633.297203,46.7600519 626.846154,61.1984436 C620.70979,74.8521401 583.262238,118.95201 574.451049,118.95201 C573.506993,118.95201 572.877622,118.324254 572.72028,116.911803 L572.72028,115.499351 C572.72028,105.141375 580.115385,92.1154345 584.835664,83.1699092 C585.15035,82.6990921 585.77972,81.4435798 585.77972,80.1880674 C585.77972,79.4033722 585.465035,78.7756161 584.520979,78.304799 C584.048951,78.1478599 583.734266,77.9909209 583.262238,77.9909209 C581.688811,77.9909209 580.902098,79.7172503 580.115385,80.9727626 C575.395105,90.232166 568,103.571984 568,114.557717 C568,118.481193 568.786713,123.346304 573.821678,123.346304 C575.70979,123.346304 577.755245,122.718547 579.486014,121.776913 C583.576923,119.815175 590.696678,113.26297 597.521416,106.338035 L598.5686,105.270289 C605.006352,98.6747332 611.025148,91.9383751 613.786713,88.6627756 C614.888112,87.2503243 615.517483,86.6225681 615.832168,86.6225681 C615.98951,86.6225681 615.98951,86.7795071 615.98951,86.9364462 C615.98951,87.4072633 615.674825,88.6627756 615.045455,90.075227 C609.381119,105.769131 605.762238,113.773022 604.975524,130.879377 L604.975524,131.193256 C604.975524,134.488975 607.965035,137 610.325175,137 Z M585.888889,75 C587.666667,75 591.37037,70.6666667 593,64.6309524 C593,63.2380952 592.259259,62 590.777778,62 C590.185185,62 589.592593,62.3095238 589.296296,62.9285714 C586.185185,68.5 585,71.9047619 585,73.6071429 C585,74.5357143 585.444444,75 585.888889,75 Z M632.478754,116 C643.541076,116 668.470255,99.8555957 679.376771,89.299639 C679.844193,88.833935 680,88.5234657 680,88.2129964 C680,87.2815884 679.220963,86.6606498 678.441926,86.6606498 C678.130312,86.6606498 677.818697,86.6606498 677.507082,86.9711191 C672.677054,91.1624549 645.410765,111.187726 634.660057,111.187726 C631.232295,111.187726 630.141643,109.169675 630.609065,105.754513 C630.92068,104.202166 630.92068,103.115523 632.634561,102.184116 C640.269122,97.9927798 658.031161,85.8844765 658.031161,76.4151625 C658.031161,74.2418773 656.784703,73 654.603399,73 C642.76204,73 625,98.6137184 625,108.393502 C625,112.740072 628.116147,116 632.478754,116 Z M634,97 C635.252584,94.2533613 640.576065,87.5393554 644.177244,84.1823525 C648.091568,80.6727586 651.066455,78.383893 651.84932,79.1468482 C652.632185,79.9098034 650.28359,83.2668063 646.682411,87.0815823 L638.697189,94.2533613 C637.288033,95.3214985 634.782865,97 634,97 Z M657.318966,140 C659.057471,140 660.637931,138.126514 660.637931,136.877524 C660.637931,136.409152 660.479885,136.096904 660.005747,135.940781 C659.215517,135.628533 658.899425,134.69179 658.899425,133.130552 C658.899425,118.298789 693.037356,52.102288 697.146552,44.4522207 C697.914655,42.9346972 698.348634,42.600842 698.778234,42.4826648 L698.873763,42.4595601 L698.873763,42.4595601 L698.969951,42.4411952 C700.082999,42.2482051 701.486494,42.527214 708.683908,27.1224764 C709,26.654105 709,26.1857335 709,25.8734859 C709,24.6244953 708.051724,24 706.945402,24 C705.997126,24 705.048851,24.4683715 704.100575,25.4051144 C689.876437,41.4858681 663.482759,102.061911 655.106322,128.446837 C654.474138,130.476447 654,132.66218 654,134.69179 C654,136.565276 654.474138,138.282638 655.58046,139.375505 C656.212644,139.843876 656.686782,140 657.318966,140 Z M678.386935,108 C693.18593,108 728.547739,92.501845 733.376884,89.5571956 C733.844221,89.2472325 734,88.6273063 734,88.1623616 C734,87.2324723 733.065327,86.302583 732.130653,86.302583 C731.974874,86.302583 731.663317,86.302583 731.507538,86.4575646 C728.859296,88.1623616 718.461055,92.501845 707.478643,96.4151292 L706.158408,96.8824816 L706.158408,96.8824816 L704.835317,97.3445671 C694.687701,100.86403 684.530854,103.815498 679.944724,103.815498 C678.698492,103.815498 677.919598,103.660517 677.60804,103.04059 C677.452261,102.885609 677.452261,102.575646 677.452261,102.265683 C677.452261,95.7564576 703.311558,72.9741697 708.140704,72.9741697 L708.296482,72.9741697 C710.321608,72.9741697 711.567839,70.6494465 711.567839,68.6346863 C711.567839,67.2398524 710.944724,66 709.542714,66 C708.763819,66 707.984925,66.3099631 706.894472,66.9298893 C696.613065,73.5940959 674.648241,91.8819188 672.155779,102.885609 C672.155779,103.350554 672,103.815498 672,104.125461 C672,106.915129 674.492462,108 678.386935,108 Z M737.4625,71 C741.85,71 747.375,64.5205479 748.8375,62.4109589 C749,62.260274 749,62.109589 749,61.9589041 C748.5125,60.7534247 746.2375,60 744.6125,60 C743.9625,60 743.15,60.1506849 742.825,60.6027397 C737.7875,64.6712329 736,67.8356164 736,69.6438356 L736,70.2465753 C736,70.6986301 736.4875,71 736.975,71 L737.4625,71 Z M723.771261,117 C724.859238,117 726.102639,116.688889 727.501466,116.377778 C737.44868,113.422222 761.228739,98.1777778 768.844575,89.6222222 C769,89.4666667 769,89.1555556 769,88.8444444 C769,88.0666667 768.222874,87.2888889 767.290323,87.2888889 C766.979472,87.2888889 766.668622,87.2888889 766.357771,87.6 C756.410557,96.3111111 738.536657,108.133333 727.190616,111.4 C726.258065,111.711111 725.480938,111.866667 724.859238,111.866667 C722.527859,111.866667 721.595308,110.311111 721.595308,108.133333 C721.595308,102.066667 726.102639,92.4222222 731.387097,86.8222222 C732.319648,85.8888889 732.785924,85.4222222 732.785924,84.6444444 C732.785924,83.4 731.387097,82 729.98827,82 C729.366569,82 728.900293,82.3111111 728.434018,82.6222222 C723.460411,88.0666667 716,100.977778 716,108.755556 C716,113.733333 718.953079,117 723.771261,117 Z M781.939394,68 C782.424242,68 782.909091,67.8431373 783.717172,67.6862745 L793.414141,57.6470588 C794.060606,56.8627451 796,56.0784314 796,54.3529412 C796,54.0392157 796,53.5686275 795.838384,53.254902 C795.515152,52.627451 794.707071,52.4705882 793.89899,52 C791.151515,53.5686275 780,63.1372549 780,66.2745098 C780,67.2156863 780.646465,68 781.939394,68 Z M770.028424,113.533865 C787.366925,110.270916 815.896641,89.2948207 816.842377,88.3625498 C817,88.3625498 817,88.0517928 817,87.7410359 C817,86.9641434 816.527132,85.4103586 815.423773,85.2549801 C815.108527,85.2549801 814.793282,85.4103586 814.478036,85.5657371 C810.852713,87.4302789 788.470284,103.74502 772.392765,108.406375 C770.186047,109.027888 768.294574,109.338645 766.718346,109.338645 L765.930233,109.338645 C762.777778,109.338645 761.359173,107.474104 761.359173,104.832669 C761.359173,102.191235 762.777778,98.3067729 765.614987,93.6454183 C770.028424,86.6533865 777.751938,80.12749 783.583979,80.12749 L784.056848,80.12749 C784.844961,80.749004 785.633075,81.059761 786.263566,81.059761 L786.578811,81.059761 C787.524548,81.059761 788.155039,80.438247 788.627907,79.8167331 C788.943152,79.3505976 789.100775,78.7290837 789.100775,78.2629482 C789.100775,76.8645418 788.155039,75.6215139 785.317829,75.1553785 C785.002584,75 784.687339,75 784.372093,75 L783.583979,75 C778.067183,75 769.713178,79.3505976 763.881137,86.8087649 C759.310078,92.247012 756,99.5498008 756,105.298805 C756,109.960159 758.206718,113.533865 764.354005,114 C765.930233,114 767.821705,114 770.028424,113.533865 Z" id="ŽivoradMiekić" fill="#000000" fill-rule="nonzero"></path>
    </g>
</svg>