<svg width="490px" height="457px" viewBox="0 0 490 457" version="1.1" xmlns="http://www.w3.org/2000/svg"
  xmlns:xlink="http://www.w3.org/1999/xlink">
  <title>logo</title>
  <defs>
    <linearGradient x1="50%" y1="0%" x2="50%" y2="100%" id="linearGradient-1">
      <stop stop-color="#0E15E1" offset="0%"></stop>
      <stop stop-color="#13D7DE" offset="100%"></stop>
    </linearGradient>
    <path
      d="M345.10945,19.4549978 L471.389187,145.157418 C487.573479,161.267176 493.457562,184.483791 486.745583,205.747493 L434.37275,371.661851 C427.659137,392.924538 409.266273,409.335916 386.370921,414.48986 L207.719677,454.701798 C202.662673,455.840236 197.536558,456.394729 192.447602,456.394729 C174.492267,456.394729 156.972215,449.490982 144.362167,436.938716 L18.0837563,311.237311 C1.89946458,295.127553 -3.98451667,271.909922 2.72756458,250.647236 L55.1003979,84.7338933 C61.8125812,63.4701911 80.2054458,47.0588133 103.101717,41.9048689 L281.75194,1.69293111 C304.650456,-3.46101333 328.926281,3.34524 345.10945,19.4549978 Z"
      id="path-2"></path>
  </defs>
  <g id="logo" stroke="none" stroke-width="1" fill="none" fill-rule="evenodd">
    <g id="Group-80">
      <mask id="mask-3" fill="white">
        <use xlink:href="#path-2"></use>
      </mask>
      <use id="Clip-79" fill="url(#linearGradient-1)" xlink:href="#path-2"></use>
    </g>
    <g id="ŽM" transform="translate(101.000000, 169.000000)" fill="#FFFFFF">
      <path
        d="M187.042512,0.00442108782 L187.109265,0.00546045587 L187.28693,0.00961792808 L187.425904,0.0168935045 L187.532483,0.0231297128 L187.72748,0.0356021294 L187.914057,0.0519721763 L187.914057,0.0519721763 L188.017191,0.0615863308 L188.159365,0.0771768516 L188.595479,0.133302726 L188.715057,0.150971983 L188.890658,0.180074289 L189.074513,0.212684462 L189.074513,0.212684462 L189.167369,0.229963955 L189.340804,0.266341837 L189.440985,0.287129198 L189.597086,0.324546448 L189.730696,0.35572749 L189.872869,0.39314474 L190.003177,0.426404518 L190.161445,0.471097344 L190.270293,0.502278385 L190.270293,0.502278385 L190.477053,0.565679837 L190.539473,0.586467198 L190.706407,0.641553705 L190.816287,0.677931586 L190.987555,0.74029367 L191.083403,0.774592815 L191.220211,0.827600586 L191.345051,0.876450885 L191.478661,0.931537391 L191.617532,0.990781371 L191.694087,1.02508052 L191.86422,1.10095438 L192.01929,1.17682825 L192.106574,1.21632424 L192.353159,1.34208777 C192.416714,1.37430818 192.478102,1.40652859 192.536292,1.43978837 L192.536292,1.43978837 L192.701305,1.52969371 L192.701305,1.52969371 L192.801241,1.58737863 C192.899153,1.64246514 192.964874,1.68092176 193.028429,1.71937838 L193.028429,1.71937838 C193.14584,1.79109477 193.215792,1.83474823 193.282648,1.87840169 L193.282648,1.87840169 C193.375195,1.9366063 193.44525,1.98337786 193.51417,2.03014942 L193.51417,2.03014942 C193.59382,2.08315719 193.647676,2.12057444 193.701533,2.16007043 L193.701533,2.16007043 C193.829674,2.25049545 193.886832,2.29310954 193.947085,2.33780237 L193.947085,2.33780237 L193.984847,2.36378657 L194.13775,2.48227453 L194.208836,2.53632167 L194.372573,2.6652033 L194.418794,2.70573866 L194.557769,2.82214788 L194.629887,2.88243123 L194.783925,3.01962781 L194.831282,3.06328127 L194.969225,3.19008417 L195.032676,3.24724941 L195.205079,3.41666641 C195.266467,3.47902849 195.315991,3.52891816 195.362316,3.57568972 L195.55071,3.77628775 L195.602503,3.83241363 L195.700415,3.94154727 L195.7877,4.04028724 L195.886746,4.15565709 L195.963301,4.24712148 L196.213084,4.56412874 L196.299234,4.67949859 L196.362788,4.76576614 L196.455438,4.89049031 L196.528691,4.99754522 L196.612675,5.12434812 L196.656833,5.19190704 L196.754848,5.33949731 L196.826966,5.45382779 L196.826966,5.45382779 L196.903417,5.57647322 L196.951909,5.65650456 L197.040225,5.8082523 L197.094082,5.90699226 L197.170533,6.04730695 C197.239453,6.17722796 197.268548,6.23231446 197.295476,6.28740097 L197.295476,6.28740097 L197.328905,6.35703863 L197.421554,6.54308551 L197.574457,6.89127381 L197.632544,7.02223418 L197.668139,7.10850173 L197.736027,7.28415493 L197.766154,7.36314691 L197.825375,7.53152453 L197.868502,7.65313059 L197.91266,7.7830516 L197.958882,7.93064186 L197.994477,8.04912982 L198.02677,8.16346031 L198.06773,8.3100112 C198.081658,8.36405834 198.09569,8.41394801 198.108586,8.46695578 L198.108586,8.46695578 L198.13665,8.57297132 L198.223831,8.97520676 L198.251894,9.12279702 L198.272323,9.22777319 L198.301418,9.39303271 L198.322981,9.54062298 L198.339076,9.66326841 L198.355274,9.8067012 L198.370337,9.94597652 L198.382202,10.0707007 L198.398297,10.229724 L198.404797,10.348212 L198.414496,10.5051565 L198.423059,10.6766523 L198.428656,10.8660771 L198.428656,10.8660771 L198.431726,10.9479273 L198.431726,11.0955176 L198.152745,61.459136 L268.66478,2.73484096 C273.502583,-1.28543467 280.848739,-0.818758411 285.082461,3.77524839 C287.016757,5.87165375 287.962342,8.46903452 287.962342,11.0539429 L287.962342,11.0539429 L288,11.0539429 L288,149.152697 C288,155.278733 282.774471,160.243794 276.327575,160.243794 C269.879544,160.243794 264.651849,155.278733 264.651849,149.152697 L264.651849,149.152697 L264.651849,35.4697378 L194.052632,94.2667886 C191.989163,95.9755097 189.295614,97.0086415 186.344647,96.9961691 C179.923544,96.9722636 174.73784,92.0072024 174.76157,85.9050726 L174.76157,85.9050726 L175.042615,34.7941486 L43.774109,138.880623 L186.802324,138.880623 C193.222292,138.880623 198.431726,143.826975 198.431726,149.928066 C198.431726,156.028117 193.222292,160.975509 186.802324,160.975509 L186.802324,160.975509 L12.4378569,160.975509 C8.84927801,161.202091 5.19941414,159.854031 2.71798955,157.033186 C-1.4133848,152.343557 -0.761741306,145.361083 4.17407642,141.43539 L4.17407642,141.43539 L154.67989,22.0961891 L13.0840322,22.0961891 C6.66086602,22.0961891 1.45463069,17.1477578 1.45463069,11.048746 C1.45463069,4.94661618 6.66086602,0 13.0840322,0 L13.0840322,0 L187.042512,0.00442108782 Z"
        id="Clip-83"></path>
      <path
        d="M80.413936,-46.314503 C84.1145913,-49.1735144 89.3014321,-48.3075492 91.9995939,-44.3826559 L91.9995939,-44.3826559 L95.5799788,-39.1725844 L102.238962,-29.4786692 L109.233369,-39.1236253 L113.080582,-44.4295751 C115.866155,-48.2973493 121.083964,-49.0388767 124.730066,-46.0860269 C128.379948,-43.1331771 129.079875,-37.6048711 126.295291,-33.7391368 L126.295291,-33.7391368 L108.68099,-9.44416972 C108.191536,-8.79648073 107.620342,-8.19775091 106.954263,-7.68469963 C103.252708,-4.82670821 98.065777,-5.69267349 95.3686054,-9.61756678 L95.3686054,-9.61756678 L78.589535,-34.0359517 C75.8931735,-37.960845 76.7095899,-43.4575316 80.413936,-46.314503 Z"
        id="Clip-86"></path>
    </g>
  </g>
</svg>