<svg xmlns="http://www.w3.org/2000/svg" xmlns:xlink="http://www.w3.org/1999/xlink" width="67px" height="18px"
	viewBox="0 0 67 18">
	<a href="https://valcon.com/" target="_blank">
		<g id="Artboard-3" transform="translate(-491.000000, -792.000000)" fill="#262622">
			<g id="Group" transform="translate(491.519989, 792.480007)">
				<path
					d="M61.5600127,4.19998125 C59.6400127,4.19998125 58.3200127,4.91998125 57.4800127,6.59998125 L57.4800127,4.55998125 L54.3600127,4.55998125 L54.3600127,15.9599812 L57.6000127,15.9599812 L57.6000127,10.9199812 C57.6000127,7.91998125 59.0400127,7.07998125 60.6000127,7.07998125 C62.5200127,7.07998125 62.8800127,8.51998125 62.8800127,10.3199812 L62.8800127,15.9599812 L66.0000127,15.9599812 L66.0000127,9.35998125 C66.0000127,5.63998125 64.0800127,4.19998125 61.5600127,4.19998125 Z"
					id="Fill-54"></path>
				<path
					d="M47.1600037,4.19998125 C43.2000037,4.19998125 40.8000037,6.83998125 40.8000037,10.3199812 C40.8000037,13.6799812 43.2000037,16.3199812 47.1600037,16.3199812 C51.1200037,16.3199812 53.6400037,13.6799812 53.6400037,10.3199812 C53.6400037,6.83998125 51.1200037,4.19998125 47.1600037,4.19998125 Z M47.1600037,13.6799812 C45.2400037,13.6799812 44.0400037,12.1199812 44.0400037,10.3199812 C44.0400037,8.39998125 45.2400037,6.83998125 47.1600037,6.83998125 C49.2000037,6.83998125 50.4000037,8.39998125 50.4000037,10.3199812 C50.4000037,12.1199812 49.2000037,13.6799812 47.1600037,13.6799812 Z"
					id="Fill-55"></path>
				<path
					d="M21.8399962,6.5999445 C20.9999962,4.7999445 19.4399962,4.1999445 17.8799962,4.1999445 C14.7599962,4.1999445 11.9999962,6.4799445 11.9999962,10.3199445 C11.9999962,14.1599445 14.7599962,16.3199445 17.8799962,16.3199445 C19.4399962,16.3199445 20.9999962,15.7199445 21.8399962,13.9199445 L21.8399962,15.9599445 L24.9599962,15.9599445 L24.9599962,4.5599445 L21.8399962,4.5599445 L21.8399962,6.5999445 Z M18.2399962,13.6799445 C16.3199962,13.6799445 15.2399962,12.1199445 15.2399962,10.3199445 C15.2399962,8.3999445 16.3199962,6.8399445 18.2399962,6.8399445 C20.2799962,6.8399445 21.5999962,8.3999445 21.5999962,10.3199445 C21.5999962,12.1199445 20.2799962,13.6799445 18.2399962,13.6799445 Z"
					id="Fill-56"></path>
				<polygon id="Fill-57"
					points="9.83999625 4.559967 6.83999625 10.919952 3.7200165 4.559967 0 4.559967 6.48001125 16.6799925 6.9600225 16.6799925 13.440033 4.559967">
				</polygon>
				<polygon id="Fill-58"
					points="26.040024 -5.68434189e-14 29.1600037 -5.68434189e-14 29.1600037 15.9600217 26.040024 15.9600217">
				</polygon>
				<path
					d="M29.8800202,10.3200067 C29.8800202,13.6800067 32.1600202,16.3200067 36.3600202,16.3200067 C37.8000202,16.3200067 39.2400202,15.9600067 40.3200202,15.1200067 L40.3200202,12.3600067 L40.0800202,12.2400067 C38.7600202,13.3200067 37.6800202,13.5600067 36.7200202,13.5600067 C33.9600202,13.5600067 33.1200202,11.6400067 33.1200202,10.3200067 C33.1200202,8.88000675 33.9600202,6.96000675 36.7200202,6.96000675 C37.6800202,6.96000675 38.7600202,7.20000675 40.0800202,8.28000675 L40.3200202,8.16000675 L40.3200202,5.40000675 C39.2400202,4.56000675 37.8000202,4.20000675 36.3600202,4.20000675 C32.1600202,4.20000675 29.8800202,6.96000675 29.8800202,10.3200067 Z"
					id="Fill-59"></path>
			</g>
		</g>
	</a>
</svg>